<svg width="24" height="24" viewBox="0 0 24 24" fill="none" xmlns="http://www.w3.org/2000/svg">
<path d="M18.0082 0C15.8799 0 13.588 0.57675 12.0055 2.16281C10.4229 0.57675 8.13097 0 6.00273 0C4.42019 0 2.73943 0.317212 1.33151 1.13908C0.534789 1.6149 0 2.63863 0 3.80655V20.0709C0 21.9453 1.33151 23.3295 2.70668 22.8681C3.77626 22.5077 4.91132 22.3491 6.00273 22.3491C7.70532 22.3491 9.51705 22.7239 10.9795 23.6756C11.6344 24.1081 12.3765 24.1081 13.0205 23.6756C14.4829 22.7095 16.2947 22.3491 17.9973 22.3491C19.0887 22.3491 20.2237 22.5077 21.2933 22.8681C22.6685 23.3439 24 21.9597 24 20.0709V3.80655C24 2.63863 23.4652 1.6149 22.6685 1.13908C21.2715 0.317212 19.5907 0 18.0082 0ZM21.8281 18.3551C21.8281 19.2634 21.1951 19.9267 20.5184 19.7681C19.6999 19.5662 18.8486 19.4797 18.0082 19.4797C16.1528 19.4797 13.4789 20.4169 12.0055 21.6425V5.04656C13.4789 3.82097 16.1528 2.88375 18.0082 2.88375C19.0123 2.88375 20.0055 3.01352 20.955 3.28747C21.457 3.43166 21.8281 4.02283 21.8281 4.70051V18.3551Z" fill="url(#paint0_linear_71_649)"/>
<defs>
<linearGradient id="paint0_linear_71_649" x1="12" y1="0" x2="12" y2="24" gradientUnits="userSpaceOnUse">
<stop stop-color="#E03C3C"/>
<stop offset="1" stop-color="#B70808"/>
</linearGradient>
</defs>
</svg>
