<svg width="113" height="42" viewBox="0 0 113 42" fill="none" xmlns="http://www.w3.org/2000/svg">
<path d="M17.7224 4.32401V9.53001H6.85444V15.154H14.9864V20.208H6.85444V31H0.356445V4.32401H17.7224Z" fill="#141414"/>
<path d="M41.1257 20.056C41.1257 20.664 41.0877 21.2973 41.0117 21.956H26.3057C26.407 23.2733 26.825 24.2867 27.5597 24.996C28.3197 25.68 29.2444 26.022 30.3337 26.022C31.955 26.022 33.0824 25.338 33.7157 23.97H40.6317C40.277 25.3633 39.631 26.6173 38.6937 27.732C37.7817 28.8467 36.629 29.7207 35.2357 30.354C33.8424 30.9873 32.2844 31.304 30.5617 31.304C28.4844 31.304 26.635 30.8607 25.0137 29.974C23.3924 29.0873 22.1257 27.8207 21.2137 26.174C20.3017 24.5273 19.8457 22.602 19.8457 20.398C19.8457 18.194 20.289 16.2687 21.1757 14.622C22.0877 12.9753 23.3544 11.7087 24.9757 10.822C26.597 9.93535 28.459 9.49201 30.5617 9.49201C32.6137 9.49201 34.4377 9.92268 36.0337 10.784C37.6297 11.6453 38.871 12.874 39.7577 14.47C40.6697 16.066 41.1257 17.928 41.1257 20.056ZM34.4757 18.346C34.4757 17.2313 34.0957 16.3447 33.3357 15.686C32.5757 15.0273 31.6257 14.698 30.4857 14.698C29.3964 14.698 28.4717 15.0147 27.7117 15.648C26.977 16.2813 26.521 17.1807 26.3437 18.346H34.4757Z" fill="#141414"/>
<path d="M51.0517 2.88001V31H44.5537V2.88001H51.0517Z" fill="#141414"/>
<path d="M59.0287 7.59201C57.8887 7.59201 56.9514 7.26268 56.2167 6.60401C55.5074 5.92001 55.1527 5.08401 55.1527 4.09601C55.1527 3.08268 55.5074 2.24668 56.2167 1.58801C56.9514 0.904012 57.8887 0.562012 59.0287 0.562012C60.1434 0.562012 61.0554 0.904012 61.7647 1.58801C62.4994 2.24668 62.8667 3.08268 62.8667 4.09601C62.8667 5.08401 62.4994 5.92001 61.7647 6.60401C61.0554 7.26268 60.1434 7.59201 59.0287 7.59201ZM62.2587 9.79601V31H55.7607V9.79601H62.2587Z" fill="#141414"/>
<path d="M73.4658 12.798C74.0991 11.81 74.9731 11.012 76.0878 10.404C77.2024 9.79601 78.5071 9.49201 80.0018 9.49201C81.7498 9.49201 83.3331 9.93535 84.7518 10.822C86.1704 11.7087 87.2851 12.9753 88.0958 14.622C88.9318 16.2687 89.3498 18.1813 89.3498 20.36C89.3498 22.5387 88.9318 24.464 88.0958 26.136C87.2851 27.7827 86.1704 29.062 84.7518 29.974C83.3331 30.8607 81.7498 31.304 80.0018 31.304C78.5324 31.304 77.2278 31 76.0878 30.392C74.9731 29.784 74.0991 28.9987 73.4658 28.036V41.108H66.9678V9.79601H73.4658V12.798ZM82.7378 20.36C82.7378 18.7387 82.2818 17.472 81.3698 16.56C80.4831 15.6227 79.3811 15.154 78.0638 15.154C76.7718 15.154 75.6698 15.6227 74.7578 16.56C73.8711 17.4973 73.4278 18.7767 73.4278 20.398C73.4278 22.0193 73.8711 23.2987 74.7578 24.236C75.6698 25.1733 76.7718 25.642 78.0638 25.642C79.3558 25.642 80.4578 25.1733 81.3698 24.236C82.2818 23.2733 82.7378 21.9813 82.7378 20.36Z" fill="#141414"/>
<path d="M112.747 20.056C112.747 20.664 112.709 21.2973 112.633 21.956H97.9268C98.0281 23.2733 98.4461 24.2867 99.1808 24.996C99.9408 25.68 100.865 26.022 101.955 26.022C103.576 26.022 104.703 25.338 105.337 23.97H112.253C111.898 25.3633 111.252 26.6173 110.315 27.732C109.403 28.8467 108.25 29.7207 106.857 30.354C105.463 30.9873 103.905 31.304 102.183 31.304C100.105 31.304 98.2561 30.8607 96.6348 29.974C95.0134 29.0873 93.7468 27.8207 92.8348 26.174C91.9228 24.5273 91.4668 22.602 91.4668 20.398C91.4668 18.194 91.9101 16.2687 92.7968 14.622C93.7088 12.9753 94.9755 11.7087 96.5968 10.822C98.2181 9.93535 100.08 9.49201 102.183 9.49201C104.235 9.49201 106.059 9.92268 107.655 10.784C109.251 11.6453 110.492 12.874 111.379 14.47C112.291 16.066 112.747 17.928 112.747 20.056ZM106.097 18.346C106.097 17.2313 105.717 16.3447 104.957 15.686C104.197 15.0273 103.247 14.698 102.107 14.698C101.017 14.698 100.093 15.0147 99.3328 15.648C98.5981 16.2813 98.1421 17.1807 97.9648 18.346H106.097Z" fill="#141414"/>
</svg>
