<svg width="24" height="24" viewBox="0 0 22 21" fill="none" xmlns="http://www.w3.org/2000/svg">
<path d="M14.0588 17.5145L13.1365 19.9813C13.0589 20.1628 12.9398 20.3113 12.7792 20.4268C12.6186 20.5423 12.4385 20.6 12.2391 20.6C11.9068 20.6 11.645 20.4639 11.4539 20.1917C11.2628 19.9194 11.2282 19.6238 11.3501 19.3048L15.1389 9.3388C15.222 9.1573 15.3411 9.0088 15.4962 8.8933C15.6513 8.7778 15.8286 8.72005 16.028 8.72005H16.7758C16.9752 8.72005 17.1525 8.77505 17.3076 8.88506C17.4627 8.99505 17.5818 9.14079 17.6649 9.32229L21.5202 19.2965C21.6532 19.621 21.6199 19.9194 21.4205 20.1917C21.2211 20.4639 20.9552 20.6 20.6229 20.6C20.3958 20.6 20.2005 20.5354 20.0371 20.4062C19.8737 20.2769 19.7504 20.1078 19.6673 19.8988L18.8614 17.5145H14.0588ZM14.6238 15.782H18.18L16.4351 10.9475H16.3687L14.6238 15.782ZM7.97661 12.68L3.67256 16.9536C3.48976 17.1351 3.26265 17.2231 2.99123 17.2175C2.71981 17.212 2.4927 17.1185 2.3099 16.937C2.12711 16.7555 2.03571 16.5273 2.03571 16.2523C2.03571 15.9773 2.12711 15.7491 2.3099 15.5676L6.68041 11.228C6.04893 10.513 5.49084 9.78705 5.00615 9.05004C4.52147 8.31305 4.0991 7.54305 3.73904 6.74005H5.88275C6.17079 7.30105 6.48515 7.82355 6.82581 8.30754C7.16648 8.79155 7.56116 9.29205 8.00984 9.80905C8.75212 9.02805 9.36976 8.22093 9.86276 7.38768C10.3557 6.55443 10.774 5.67855 11.1174 4.76005H0.997077C0.714572 4.76005 0.477766 4.66517 0.28666 4.47542C0.0955532 4.28567 0 4.05055 0 3.77005C0 3.48955 0.0955532 3.25442 0.28666 3.06467C0.477766 2.87492 0.714572 2.78005 0.997077 2.78005H6.97954V1.79005C6.97954 1.50955 7.07509 1.27442 7.2662 1.08467C7.4573 0.894924 7.69411 0.800049 7.97661 0.800049C8.25912 0.800049 8.49593 0.894924 8.68703 1.08467C8.87814 1.27442 8.97369 1.50955 8.97369 1.79005V2.78005H14.9562C15.2387 2.78005 15.4755 2.87492 15.6666 3.06467C15.8577 3.25442 15.9532 3.48955 15.9532 3.77005C15.9532 4.05055 15.8577 4.28567 15.6666 4.47542C15.4755 4.66517 15.2387 4.76005 14.9562 4.76005H13.1116C12.7515 5.90955 12.2696 7.0343 11.6658 8.13429C11.062 9.2343 10.3198 10.2766 9.439 11.2611L11.8652 13.703L11.1174 15.7161L7.97661 12.68Z" fill="url(#paint0_linear_71_648)"/>
<defs>
<linearGradient id="paint0_linear_71_648" x1="10.8" y1="0.800049" x2="10.8" y2="20.6" gradientUnits="userSpaceOnUse">
<stop stop-color="#E03C3C"/>
<stop offset="1" stop-color="#B70808"/>
</linearGradient>
</defs>
</svg>
